# xmcd CD database file generated by OrangeCD 5.2
#
# Track frame offsets:
#    150
#    31117
#    50743
#    101341
#    145863
#
# Disc length: 2507 seconds
#
# Revision: 1
# Processed by: cddbd v1.5.1PL2 Copyright (c) Steve Scherf et al.
# Submitted via: OrangeCD 5.2
#
DISCID=3a09c905
DTITLE=Stevie Ray Vaughan - The Met Center disk 2
DYEAR=2025
DGENRE=Blues
TTITLE0=Cold Shot
TTITLE1=Crossfire
TTITLE2=Life Without You
TTITLE3=Voodoo Chile (Slight Return)
TTITLE4=Riviera Paradise
EXTD=
EXTT0=
EXTT1=
EXTT2=
EXTT3=
EXTT4=
PLAYORDER=
